<svg width="24" height="27" viewBox="0 0 24 27" fill="none" xmlns="http://www.w3.org/2000/svg">
<path d="M4.62403 9.03885C4.7568 7.97675 5.92732 7.39149 6.85666 7.92254L10.7597 10.1528C11.5282 10.592 12.4718 10.592 13.2403 10.1528L17.1433 7.92254C18.0727 7.39149 19.2432 7.97675 19.376 9.03885L21.2229 23.8139C21.3348 24.7092 20.6367 25.5 19.7344 25.5H4.26556C3.36332 25.5 2.66524 24.7092 2.77715 23.8139L4.62403 9.03885Z" stroke="#0D1222"/>
<path d="M16 7V4.51302C16 3.11979 14.8422 2 13.4316 2H11.5684C10.1445 2 9 3.13281 9 4.51302V7" stroke="#0D1222" stroke-width="1.2" stroke-miterlimit="10" stroke-linecap="round" stroke-linejoin="round"/>
<circle cx="8.99973" cy="12.5" r="0.8" stroke="#0D1222" stroke-width="0.4"/>
<circle cx="14.9997" cy="12.5" r="0.8" stroke="#0D1222" stroke-width="0.4"/>
</svg>
