<svg width="26" height="24" viewBox="0 0 26 24" fill="none" xmlns="http://www.w3.org/2000/svg">
<path d="M23 5.99998H4C3.78944 5.99251 4.14634 6.15321 4 5.99998C3.85366 5.84674 3 5.21298 3 4.99998C3 4.78698 3.85366 5.15321 4 4.99998C4.14634 4.84674 3.78944 4.00745 4 3.99998H24C24.1067 4.00011 23.9014 4.04117 24 3.99998C24.0986 3.95878 23.9245 4.07622 24 3.99998C24.0755 3.92373 23.9591 4.09964 24 3.99998C24.0409 3.90031 24 3.10787 24 2.99998C24 2.67643 24.1225 3.2989 24 2.99998C23.8775 2.70106 24.2263 2.22876 24 1.99998C23.7737 1.77119 23.2957 1.12379 23 0.999976C22.7043 0.876159 22.32 0.999976 22 0.999976H3C2.13822 0.999976 1.60946 1.384 1 1.99998C0.390536 2.61595 0.000265163 3.12872 0 3.99998V21C0 21.8714 0.390507 22.3838 1 23C1.60949 23.6162 2.13805 24 3 24H23C23.665 24.0179 24.5164 23.4618 25 23C25.4836 22.5382 25.9799 22.6722 26 22V7.99998C25.9801 7.32759 25.4836 7.46199 25 6.99998C24.5164 6.53796 23.6651 5.98202 23 5.99998ZM21 17C20.6786 17 20.2672 16.1805 20 16C19.7328 15.8195 20.123 16.3002 20 16C19.877 15.6998 19.9373 15.3187 20 15C20.0627 14.6813 19.7727 14.2297 20 14C20.2273 13.7702 20.6848 13.0634 21 13C21.3152 12.9366 21.7031 12.8756 22 13C22.2969 13.1243 21.8214 13.7298 22 14C22.1786 14.2701 23 14.675 23 15C23 15.4348 22.3037 15.692 22 16C21.6963 16.3079 21.4301 16.9986 21 17Z" fill="#FF813A"/>
</svg>
