<svg width="22" height="20" viewBox="0 0 22 20" fill="none" xmlns="http://www.w3.org/2000/svg">
<path d="M7.00003 5C7.46556 4.55684 7.87188 4.61425 8.00003 4C8.12817 3.38575 7.25243 2.57844 7.00003 2C6.74762 1.42156 6.54796 1.34779 6.00003 1C5.45209 0.652206 4.65893 0 4.00003 0C3.34112 0 2.54796 0.652206 2.00003 1C1.45209 1.34779 1.25243 1.42156 1.00003 2C0.747622 2.57844 0.871882 3.38575 1.00003 4C1.12817 4.61425 1.5345 4.55684 2.00003 5C2.30957 5.29467 2.59533 5.8405 3.00003 6C3.40473 6.1595 3.56191 6 4.00003 6C4.43815 6 5.59533 6.1595 6.00003 6C6.40473 5.8405 6.69049 5.29467 7.00003 5ZM20 14C19.5337 13.5576 18.6464 13.1218 18 13C17.3537 12.8782 16.6087 12.7601 16 13C15.3914 13.2399 15.366 13.4793 15 14C14.6341 14.5207 14 15.3738 14 16C14 16.6262 14.6341 17.4793 15 18C15.366 18.5207 15.3914 18.7601 16 19C16.6087 19.2399 17.3537 19.1218 18 19C18.6464 18.8782 19.5337 18.4424 20 18C20.3101 17.7058 20.8322 17.3846 21 17C21.1679 16.6154 21 16.4164 21 16C21 15.5836 21.1679 15.3846 21 15C20.8322 14.6154 20.3101 14.2942 20 14ZM20 2L19 1C18.8453 0.852551 18.2024 1.07982 18 1C17.7977 0.920177 18.2191 1 18 1C17.7809 1 17.2024 0.920177 17 1C16.7977 1.07982 16.1547 0.852551 16 1L2.00003 15C1.84488 15.147 2.08402 14.8077 2.00003 15C1.91604 15.1923 2.00003 15.7918 2.00003 16C2.00003 16.2082 1.91604 15.8077 2.00003 16C2.08402 16.1923 1.84488 16.853 2.00003 17L3.00003 18C3.15473 18.1474 3.79767 17.9202 4.00003 18C4.20239 18.0798 3.78093 18 4.00003 18C4.21912 18 4.79767 18.0798 5.00003 18C5.20239 17.9202 5.84533 18.1474 6.00003 18L20 4C20.1552 3.85298 19.916 4.19232 20 4C20.084 3.80768 20 3.20822 20 3C20 2.79178 20.084 3.19232 20 3C19.916 2.80768 20.1552 2.14702 20 2Z" fill="#FF813A"/>
</svg>
