<svg width="34" height="26" viewBox="0 0 34 26" fill="none" xmlns="http://www.w3.org/2000/svg">
<path d="M32 18H31V12C30.9987 11.3542 31.4642 11.4562 31 11L25 6C24.5368 5.54281 24.6558 5.00129 24 5H21V2C21 1.3536 21.464 1.45717 21 1C20.536 0.542833 19.6563 0.000265135 19 0H2C1.34347 0 1.46423 0.542804 1 1C0.535766 1.4572 0 1.35343 0 2V19C0 19.6466 0.535766 19.5428 1 20C1.46423 20.4572 1.34347 21 2 21H3C3 22.2929 4.07172 24.0858 5 25C5.92828 25.9142 6.68722 26 8 26C9.31278 26 11.0717 25.9142 12 25C12.9283 24.0858 13 22.2929 13 21H20C20 22.2929 20.0717 24.0858 21 25C21.9283 25.9142 23.6872 26 25 26C26.3128 26 27.0717 25.9142 28 25C28.9283 24.0858 30 22.2929 30 21H32C32.2186 20.9995 32.8453 21.1521 33 21C33.1547 20.8479 32.9992 20.2153 33 20V19C32.9995 18.7845 33.1547 18.1523 33 18C32.8453 17.8477 32.2188 18.0005 32 18ZM8 24C7.51036 24 7.4071 23.2679 7 23C6.5929 22.7321 6.18733 22.4455 6 22C5.81267 21.5545 5.9044 21.4729 6 21C6.0956 20.5271 5.6537 19.3409 6 19C6.3463 18.6591 7.51975 19.094 8 19C8.48025 18.906 8.54769 18.8153 9 19C9.45231 19.1847 9.72812 19.599 10 20C10.2719 20.401 11.0002 20.5178 11 21C10.9997 21.6464 10.4642 22.543 10 23C9.5358 23.457 8.65635 24 8 24ZM25 24C24.5104 24 23.4071 23.2679 23 23C22.5929 22.7321 22.1873 22.4455 22 22C21.8127 21.5545 21.9044 21.4729 22 21C22.0956 20.5271 22.6537 19.3409 23 19C23.3463 18.6591 23.5197 19.094 24 19C24.4803 18.906 25.5477 18.8153 26 19C26.4523 19.1847 26.7281 19.599 27 20C27.2719 20.401 27.0002 20.5178 27 21C26.9997 21.6464 26.4642 22.543 26 23C25.5358 23.457 25.6563 24 25 24ZM29 13H21V7H24L29 12V13Z" fill="#FF813A"/>
</svg>
