<svg width="28" height="24" viewBox="0 0 28 24" fill="none" xmlns="http://www.w3.org/2000/svg">
<path d="M14.0003 3.13366e-06C12.293 -0.000927072 10.5778 0.339871 9.00028 1C7.42275 1.66013 6.20753 2.77944 5.00028 4C3.79303 5.22056 2.65321 6.40509 2.00028 8C1.34735 9.59492 0.99936 11.2739 1.00028 13V16C1.00052 16.3052 0.841326 15.7406 1.00028 16C1.15923 16.2595 1.73012 16.8638 2.00028 17H3.00028C3.05033 18.4902 2.93986 19.9637 4.00028 21C5.0607 22.0363 6.52548 23.0001 8.00028 23H10.0003C10.3236 23 9.77169 23.2311 10.0003 23C10.2289 22.7689 11.0003 22.3268 11.0003 22V13C11.0003 12.6732 10.2289 12.2311 10.0003 12C9.77169 11.7689 10.3236 11 10.0003 11H8.00028C7.24338 10.9991 6.69803 11.7034 6.00028 12C5.30253 12.2966 4.52918 12.4526 4.00028 13C4.00028 10.3858 5.17194 7.84849 7.00028 6C8.82862 4.15151 11.4146 3 14.0003 3C16.5859 3 19.1719 4.15151 21.0003 6C22.8286 7.84849 24.0003 10.3858 24.0003 13C23.4715 12.4527 22.6979 12.2966 22.0003 12C21.3027 11.7035 20.757 10.9992 20.0003 11H18.0003C17.8402 11 18.1482 11.9381 18.0003 12C17.8524 12.0619 18.1135 11.8856 18.0003 12C17.8871 12.1144 17.0615 11.8505 17.0003 12C16.939 12.1495 17.0003 12.8382 17.0003 13V22C17.0003 22.1618 16.939 21.8505 17.0003 22C17.0615 22.1495 17.8871 22.8856 18.0003 23C18.1135 23.1144 17.8524 22.9381 18.0003 23C18.1482 23.0619 17.8402 23 18.0003 23H20.0003C21.4751 23.0001 22.9399 22.0363 24.0003 21C25.0607 19.9637 24.9502 18.4902 25.0003 17H26.0003C26.2704 16.8638 26.8413 16.2595 27.0003 16C27.1592 15.7406 27 16.3052 27.0003 16V13C27.0012 11.2737 26.6533 9.59505 26.0003 8C25.3472 6.40496 24.2077 5.22059 23.0003 4C21.7928 2.77942 20.578 1.66002 19.0003 1C17.4225 0.33999 15.7078 -0.00119289 14.0003 3.13366e-06Z" fill="#FF813A"/>
</svg>
